<svg viewBox="0 0 24 24" fill="none" xmlns="http://www.w3.org/2000/svg">
  <path d="M16 3.99H8C6.939 3.99 5.922 4.411 5.172 5.162C4.421 5.912 4 6.929 4 7.99V17.99C4 19.051 4.421 20.068 5.172 20.818C5.922 21.569 6.939 21.99 8 21.99H16C17.061 21.99 18.078 21.569 18.828 20.818C19.579 20.068 20 19.051 20 17.99V7.99C20 6.929 19.579 5.912 18.828 5.162C18.078 4.411 17.061 3.99 16 3.99Z" stroke="currentColor" stroke-width="1.5" stroke-linecap="round" stroke-linejoin="round"/>
  <path d="M9 2V7" stroke="currentColor" stroke-width="1.5" stroke-linecap="round" stroke-linejoin="round"/>
  <path d="M15 2V7" stroke="currentColor" stroke-width="1.5" stroke-linecap="round" stroke-linejoin="round"/>
  <path d="M8 16H14" stroke="currentColor" stroke-width="1.5" stroke-linecap="round" stroke-linejoin="round"/>
  <path d="M8 12H16" stroke="currentColor" stroke-width="1.5" stroke-linecap="round" stroke-linejoin="round"/>
</svg>
